<?xml version="1.0" encoding="utf-8"?><svg xmlns="http://www.w3.org/2000/svg" xmlns:xlink="http://www.w3.org/1999/xlink"><symbol viewBox="0 0 20.31 37.28" id="social" xmlns="http://www.w3.org/2000/svg"><path d="M3.15 35V21.58H1.88a2 2 0 01-1.88-2V14.3a2.61 2.61 0 01.91-2c.48-.53 1.21-1.35 1.47-1.62a2.12 2.12 0 01.75-.43 9.55 9.55 0 011.06-4.49 21.67 21.67 0 013.16-3.81 7.64 7.64 0 015-1.95H18a1.93 1.93 0 012.22 2.22v4.71a2.25 2.25 0 01-.63 1.84l-1.22 1.31a2 2 0 011.95 2.36c-.16 1.39-.48 4.42-.53 5a2.7 2.7 0 01-.46 1.4c-.27.34-1.44 1.62-1.91 2.14a2.05 2.05 0 01-1.59.6h-.49V33a3.39 3.39 0 01-.37 1.45c-.31.39-1.58 1.83-2.06 2.34a2.29 2.29 0 01-1.69.51H5.29A2 2 0 013.15 35z"/><path d="M18.36 12h-5V8.79a1.3 1.3 0 011.38-1.51h3.51V1.9h-4.8c-5.36 0-6.58 4-6.58 6.58v3.59H3.78v5.54h3.1V33.3h6.5V17.58h4.4z"/></symbol></svg>